<svg id="Capa_1" enable-background="new 0 0 512.635 512.635" height="512" viewBox="0 0 512.635 512.635" width="512" xmlns="http://www.w3.org/2000/svg"><g><g><path d="m94.169 46.684h-80.136c-7.738 0-14.033 6.295-14.033 14.032v80.136c0 7.737 6.295 14.032 14.033 14.032h80.136c7.737 0 14.032-6.295 14.032-14.032v-33.779c0-4.142-3.357-7.5-7.5-7.5s-7.5 3.358-7.5 7.5v32.812h-78.201v-78.201h78.201v10.312c0 4.142 3.357 7.5 7.5 7.5s7.5-3.358 7.5-7.5v-11.28c0-7.737-6.295-14.032-14.032-14.032z"/><path d="m232.238 76.894-20.912-3.039-9.353-18.95c-2.503-5.071-7.57-8.221-13.225-8.221s-10.723 3.15-13.226 8.221l-9.353 18.95-20.912 3.039c-5.597.813-10.158 4.659-11.905 10.037-1.748 5.378-.317 11.171 3.731 15.118l15.133 14.75-3.572 20.829c-.956 5.573 1.292 11.101 5.866 14.424 2.586 1.878 5.61 2.833 8.655 2.833 2.343 0 4.699-.565 6.876-1.71l18.705-9.834 18.705 9.834c5.007 2.632 10.957 2.201 15.531-1.122 4.574-3.324 6.823-8.85 5.867-14.424l-3.572-20.829 15.133-14.75c4.049-3.947 5.479-9.739 3.731-15.118-1.744-5.379-6.306-9.225-11.903-10.038zm-17.524 29.257c-3.477 3.389-5.062 8.269-4.24 13.053l3.507 20.456-18.37-9.658c-2.148-1.129-4.505-1.694-6.861-1.694-2.357 0-4.715.564-6.863 1.694l-18.37 9.657 3.508-20.454c.821-4.785-.764-9.665-4.24-13.054l-14.861-14.486 20.537-2.984c4.804-.698 8.955-3.713 11.104-8.067l9.186-18.611 9.185 18.611c2.149 4.354 6.301 7.369 11.104 8.066l20.537 2.985z"/><path d="m366.118 76.894-20.913-3.039-9.353-18.95c-2.502-5.071-7.569-8.222-13.225-8.222s-10.723 3.15-13.225 8.221l-9.353 18.95-20.913 3.039c-5.597.813-10.158 4.659-11.905 10.037s-.317 11.171 3.731 15.118l15.133 14.751-3.571 20.828c-.956 5.573 1.291 11.1 5.866 14.424s10.527 3.753 15.531 1.123l18.704-9.834 18.706 9.833c2.177 1.145 4.532 1.71 6.877 1.71 3.044 0 6.069-.954 8.654-2.832 4.574-3.324 6.822-8.851 5.866-14.424l-3.572-20.829 15.134-14.75c4.049-3.947 5.479-9.739 3.731-15.118-1.745-5.377-6.306-9.223-11.903-10.036zm-17.525 29.257c-3.477 3.389-5.062 8.269-4.24 13.053l3.507 20.455-18.37-9.657c-2.148-1.129-4.505-1.694-6.861-1.694-2.357 0-4.715.564-6.863 1.694l-18.369 9.657 3.508-20.454c.821-4.784-.765-9.664-4.241-13.054l-14.861-14.486 20.538-2.984c4.802-.698 8.953-3.712 11.104-8.067l9.185-18.61 9.185 18.61c2.149 4.354 6.301 7.369 11.104 8.066l20.538 2.985z"/><path d="m511.902 86.931c-1.747-5.378-6.309-9.224-11.905-10.037l-20.912-3.039-9.353-18.95c-2.503-5.071-7.57-8.221-13.226-8.221-5.654 0-10.722 3.15-13.225 8.221l-9.353 18.95-20.912 3.039c-5.597.813-10.158 4.659-11.905 10.037-1.748 5.378-.317 11.171 3.731 15.118l15.133 14.75-3.572 20.829c-.956 5.573 1.292 11.101 5.866 14.424 2.586 1.878 5.61 2.833 8.655 2.833 2.343 0 4.699-.565 6.876-1.71l18.705-9.834 18.705 9.834c5.008 2.632 10.957 2.201 15.531-1.122 4.574-3.324 6.823-8.85 5.867-14.424l-3.572-20.829 15.133-14.75c4.051-3.948 5.481-9.74 3.733-15.119zm-29.429 19.22c-3.477 3.389-5.062 8.269-4.24 13.053l3.507 20.456-18.37-9.658c-2.148-1.129-4.505-1.694-6.861-1.694-2.357 0-4.715.564-6.863 1.694l-18.37 9.657 3.508-20.454c.821-4.785-.764-9.665-4.24-13.054l-14.861-14.486 20.537-2.984c4.804-.698 8.955-3.713 11.104-8.067l9.186-18.611 9.185 18.611c2.149 4.354 6.301 7.369 11.104 8.066l20.537 2.985z"/><path d="m67.304 81.255-17.748 22.76-8.986-10.034c-2.763-3.086-7.502-3.349-10.59-.584-3.086 2.763-3.348 7.505-.584 10.59l14.97 16.718c1.425 1.592 3.458 2.497 5.587 2.497.085 0 .17-.001.255-.004 2.221-.076 4.293-1.132 5.659-2.884l23.265-29.835c2.548-3.266 1.964-7.979-1.302-10.526-3.267-2.548-7.98-1.965-10.526 1.302z"/><path d="m94.169 202.217h-80.136c-7.738 0-14.033 6.295-14.033 14.033v80.136c0 7.738 6.295 14.033 14.033 14.033h11.295c4.143 0 7.5-3.358 7.5-7.5s-3.357-7.5-7.5-7.5h-10.328v-78.201h78.201v78.201h-33.154c-4.143 0-7.5 3.358-7.5 7.5s3.357 7.5 7.5 7.5h34.122c7.737 0 14.032-6.295 14.032-14.033v-80.136c0-7.738-6.295-14.033-14.032-14.033z"/><path d="m232.238 232.427-20.912-3.039-9.353-18.951c-2.503-5.07-7.571-8.22-13.225-8.22-5.655 0-10.723 3.15-13.226 8.221l-9.353 18.951-20.912 3.039c-5.597.813-10.158 4.659-11.905 10.036-1.748 5.378-.318 11.171 3.731 15.119l15.133 14.75-3.572 20.829c-.956 5.573 1.292 11.101 5.866 14.424 2.586 1.878 5.61 2.833 8.655 2.833 2.343 0 4.699-.565 6.876-1.71l18.705-9.834 18.705 9.834c5.007 2.632 10.957 2.201 15.531-1.122 4.574-3.324 6.823-8.85 5.867-14.424l-3.572-20.829 15.133-14.75c4.049-3.947 5.479-9.74 3.731-15.118s-6.306-9.226-11.903-10.039zm-17.524 29.257c-3.477 3.389-5.062 8.269-4.24 13.053l3.507 20.456-18.368-9.657c-2.149-1.13-4.507-1.695-6.864-1.695-2.356 0-4.714.565-6.862 1.694l-18.37 9.657 3.508-20.454c.821-4.785-.764-9.665-4.24-13.054l-14.861-14.486 20.537-2.984c4.805-.698 8.956-3.714 11.104-8.068l9.186-18.611 9.185 18.61c2.148 4.354 6.301 7.371 11.104 8.068l20.537 2.985z"/><path d="m366.118 232.427-20.913-3.039-9.353-18.951c-2.502-5.071-7.569-8.221-13.225-8.221s-10.723 3.15-13.225 8.221l-9.353 18.951-20.913 3.039c-5.597.813-10.158 4.659-11.905 10.037s-.317 11.171 3.731 15.118l15.133 14.751-3.571 20.828c-.956 5.573 1.291 11.1 5.866 14.424s10.527 3.753 15.531 1.123l18.705-9.834 18.705 9.833c2.177 1.145 4.532 1.71 6.877 1.71 3.044 0 6.069-.954 8.654-2.832 4.574-3.324 6.822-8.851 5.866-14.424l-3.572-20.829 15.134-14.75c4.049-3.947 5.479-9.74 3.731-15.118s-6.306-9.224-11.903-10.037zm-17.525 29.257c-3.477 3.389-5.062 8.269-4.24 13.053l3.507 20.455-18.368-9.657c-2.149-1.13-4.507-1.695-6.864-1.695-2.356 0-4.714.565-6.862 1.694l-18.369 9.657 3.508-20.454c.821-4.784-.765-9.664-4.241-13.054l-14.861-14.486 20.538-2.984c4.803-.698 8.953-3.713 11.104-8.068l9.185-18.61 9.185 18.609c2.148 4.354 6.3 7.371 11.104 8.068l20.538 2.985z"/><path d="m94.169 357.75h-80.136c-7.738 0-14.033 6.295-14.033 14.032v80.136c0 7.738 6.295 14.033 14.033 14.033h80.136c7.737 0 14.032-6.295 14.032-14.033v-80.136c0-7.737-6.295-14.032-14.032-14.032zm-.968 93.201h-78.201v-78.201h78.201z"/><path d="m232.238 387.96-20.912-3.039-9.353-18.951c-2.503-5.07-7.571-8.22-13.225-8.22-5.655 0-10.723 3.15-13.226 8.221l-9.353 18.951-20.912 3.039c-5.597.813-10.158 4.659-11.905 10.037-1.748 5.378-.317 11.171 3.731 15.118l15.133 14.751-3.572 20.828c-.956 5.573 1.292 11.101 5.866 14.424 2.585 1.878 5.609 2.833 8.655 2.833 2.343 0 4.699-.565 6.876-1.709l18.706-9.834 18.705 9.834c5.005 2.632 10.956 2.201 15.53-1.123s6.823-8.85 5.867-14.425l-3.572-20.828 15.133-14.751c4.049-3.947 5.479-9.739 3.731-15.118-1.744-5.379-6.306-9.225-11.903-10.038zm-17.524 29.257c-3.477 3.389-5.062 8.269-4.24 13.054l3.508 20.455-18.371-9.658c-2.148-1.129-4.505-1.694-6.861-1.694-2.357 0-4.715.564-6.863 1.694l-18.37 9.658 3.508-20.455c.821-4.785-.764-9.665-4.24-13.054l-14.861-14.487 20.538-2.984c4.805-.699 8.955-3.715 11.104-8.067l9.186-18.611 9.185 18.61c2.148 4.354 6.299 7.37 11.104 8.068l20.537 2.985z"/></g></g></svg>