<?xml version="1.0" encoding="iso-8859-1"?>
<!-- Generator: Adobe Illustrator 19.0.0, SVG Export Plug-In . SVG Version: 6.00 Build 0)  -->
<svg version="1.1" id="Capa_1" xmlns="http://www.w3.org/2000/svg" xmlns:xlink="http://www.w3.org/1999/xlink" x="0px" y="0px"
	 viewBox="0 0 512 512" style="enable-background:new 0 0 512 512;" xml:space="preserve">
<g>
	<g>
		<path style="fill:#231F20;" d="M500.87,0H11.13C4.986,0,0,4.986,0,11.13v178.087c0,4.797,3.061,9.049,7.613,10.563
			c4.552,1.525,9.561-0.045,12.422-3.885l63.443-84.591h116.87v378.435h-55.652c-6.144,0-11.13,4.975-11.13,11.13
			s4.986,11.13,11.13,11.13h222.609c6.155,0,11.13-4.975,11.13-11.13s-4.975-11.13-11.13-11.13h-55.652V111.304h116.87
			l63.443,84.591c2.872,3.84,7.858,5.398,12.422,3.885c4.552-1.514,7.613-5.766,7.613-10.563V11.13C512,4.986,507.025,0,500.87,0z
			 M489.739,155.826l-46.748-62.33c-2.104-2.805-5.409-4.452-8.904-4.452H300.522c-6.155,0-11.13,4.986-11.13,11.13v389.565h-66.783
			V100.174c0-6.144-4.986-11.13-11.13-11.13H77.913c-3.506,0-6.801,1.647-8.904,4.452l-46.748,62.33V22.261h467.478V155.826z"/>
	</g>
</g>
<g>
</g>
<g>
</g>
<g>
</g>
<g>
</g>
<g>
</g>
<g>
</g>
<g>
</g>
<g>
</g>
<g>
</g>
<g>
</g>
<g>
</g>
<g>
</g>
<g>
</g>
<g>
</g>
<g>
</g>
</svg>
