<?xml version="1.0"?>
<svg xmlns="http://www.w3.org/2000/svg" xmlns:xlink="http://www.w3.org/1999/xlink" xmlns:svgjs="http://svgjs.com/svgjs" version="1.1" width="512" height="512" x="0" y="0" viewBox="0 0 511.99998 511" style="enable-background:new 0 0 512 512" xml:space="preserve"><g>
<g xmlns="http://www.w3.org/2000/svg" id="surface1">
<path d="M 457.1875 80.90625 L 262.398438 80.90625 L 213.589844 20.769531 C 203.167969 8.085938 187.878906 0.5 171.460938 0.5 L 54.699219 0.5 C 24.6875 0.5 0 25.414062 0 55.425781 L 0 378.296875 C 0 408.195312 24.6875 433.113281 54.699219 433.113281 L 457.300781 433.113281 C 487.3125 433.113281 512 408.195312 512 378.183594 L 512 135.152344 C 511.886719 105.140625 487.199219 80.90625 457.1875 80.90625 Z M 22.648438 378.183594 L 22.648438 55.425781 C 22.648438 37.871094 37.144531 23.148438 54.699219 23.148438 L 171.460938 23.148438 C 180.972656 23.148438 190.03125 27.679688 196.035156 35.152344 L 233.066406 80.90625 L 112.570312 80.90625 C 82.671875 80.90625 57.757812 105.140625 57.757812 135.152344 L 57.757812 410.460938 L 54.699219 410.460938 C 37.144531 410.460938 22.648438 395.738281 22.648438 378.183594 Z M 489.238281 378.183594 C 489.238281 395.625 474.742188 410.460938 457.1875 410.460938 L 80.40625 410.460938 L 80.40625 135.152344 C 80.40625 117.710938 95.128906 103.554688 112.570312 103.554688 L 457.1875 103.554688 C 474.628906 103.554688 489.238281 117.710938 489.238281 135.152344 Z M 489.238281 378.183594 " style="" fill="#000000" data-original="#000000"/>
<path d="M 289.464844 173.65625 C 287.3125 171.390625 284.367188 170.035156 281.199219 170.035156 C 278.027344 170.035156 275.082031 171.390625 272.929688 173.65625 L 206.566406 244.890625 C 202.261719 249.421875 202.601562 256.667969 207.132812 260.859375 C 211.664062 265.164062 218.683594 264.824219 222.988281 260.292969 L 269.535156 210.125 L 269.535156 333.792969 C 269.535156 340.023438 274.628906 345.117188 280.859375 345.117188 C 287.085938 345.117188 292.183594 340.023438 292.183594 333.792969 L 292.183594 210.125 L 339.070312 260.292969 C 341.332031 262.671875 344.390625 263.917969 347.449219 263.917969 C 350.167969 263.917969 352.996094 262.898438 355.148438 260.859375 C 359.679688 256.554688 360.019531 249.421875 355.714844 244.890625 Z M 289.464844 173.65625 " style="" fill="#000000" data-original="#000000"/>
</g>
</g></svg>
