<?xml version="1.0"?>
<svg xmlns="http://www.w3.org/2000/svg" xmlns:xlink="http://www.w3.org/1999/xlink" xmlns:svgjs="http://svgjs.com/svgjs" version="1.1" width="512" height="512" x="0" y="0" viewBox="0 0 74 74" style="enable-background:new 0 0 512 512" xml:space="preserve" class=""><g><g xmlns="http://www.w3.org/2000/svg" id="Numbers"><text fill="rgb(0,0,0)" font-family="ArialMT, Arial" font-size="18" transform="translate(31.995 -17.877)" svgjs:data="{&quot;leading&quot;:&quot;1.3&quot;}">2<tspan x="-5.005" y="124" svgjs:data="{&quot;leading&quot;:&quot;1.3&quot;}">12</tspan><tspan x="-5.005" y="248" svgjs:data="{&quot;leading&quot;:&quot;1.3&quot;}">22</tspan><tspan x="-5.005" y="372" svgjs:data="{&quot;leading&quot;:&quot;1.3&quot;}">32</tspan><tspan x="-5.005" y="496" svgjs:data="{&quot;leading&quot;:&quot;1.3&quot;}">42</tspan><tspan x="-5.005" y="620" svgjs:data="{&quot;leading&quot;:&quot;1.3&quot;}">52</tspan><tspan x="-5.005" y="744" svgjs:data="{&quot;leading&quot;:&quot;1.3&quot;}">62</tspan><tspan x="-5.005" y="868" svgjs:data="{&quot;leading&quot;:&quot;1.3&quot;}">72</tspan><tspan x="-5.005" y="992" svgjs:data="{&quot;leading&quot;:&quot;1.3&quot;}">82</tspan><tspan x="-5.005" y="1116" svgjs:data="{&quot;leading&quot;:&quot;1.3&quot;}">92</tspan><tspan x="-10.011" y="1240" svgjs:data="{&quot;leading&quot;:&quot;1.3&quot;}">102</tspan><tspan letter-spacing="-.074em" x="-9.343" y="1364" svgjs:data="{&quot;leading&quot;:&quot;1.3&quot;}">1</tspan><tspan x="-.668" y="1364" svgjs:data="{&quot;leading&quot;:&quot;1.3&quot;}">12</tspan><tspan x="-10.011" y="1488" svgjs:data="{&quot;leading&quot;:&quot;1.3&quot;}">122</tspan><tspan x="-10.011" y="1612" svgjs:data="{&quot;leading&quot;:&quot;1.3&quot;}">132</tspan><tspan x="-10.011" y="1736" svgjs:data="{&quot;leading&quot;:&quot;1.3&quot;}">142</tspan><tspan x="-10.011" y="1860" svgjs:data="{&quot;leading&quot;:&quot;1.3&quot;}">152</tspan><tspan x="-10.011" y="1984" svgjs:data="{&quot;leading&quot;:&quot;1.3&quot;}">162</tspan><tspan x="-10.011" y="2108" svgjs:data="{&quot;leading&quot;:&quot;1.3&quot;}">172</tspan><tspan x="-10.011" y="2232" svgjs:data="{&quot;leading&quot;:&quot;1.3&quot;}">182</tspan><tspan x="-10.011" y="2356" svgjs:data="{&quot;leading&quot;:&quot;1.3&quot;}">192</tspan><tspan x="-10.011" y="2480" svgjs:data="{&quot;leading&quot;:&quot;1.3&quot;}">202</tspan><tspan x="-10.011" y="2604" svgjs:data="{&quot;leading&quot;:&quot;1.3&quot;}">212</tspan><tspan x="-10.011" y="2728" svgjs:data="{&quot;leading&quot;:&quot;1.3&quot;}">222</tspan><tspan x="-10.011" y="2852" svgjs:data="{&quot;leading&quot;:&quot;1.3&quot;}">232</tspan><tspan x="-10.011" y="2976" svgjs:data="{&quot;leading&quot;:&quot;1.3&quot;}">242</tspan><tspan x="-10.011" y="3100" svgjs:data="{&quot;leading&quot;:&quot;1.3&quot;}">252</tspan><tspan x="-10.011" y="3224" svgjs:data="{&quot;leading&quot;:&quot;1.3&quot;}">262</tspan><tspan x="-10.011" y="3348" svgjs:data="{&quot;leading&quot;:&quot;1.3&quot;}">272</tspan><tspan x="-10.011" y="3472" svgjs:data="{&quot;leading&quot;:&quot;1.3&quot;}">282</tspan><tspan x="-10.011" y="3596" svgjs:data="{&quot;leading&quot;:&quot;1.3&quot;}">292</tspan></text></g><g xmlns="http://www.w3.org/2000/svg" id="Icons"><path d="m60.12 51.46h-8.43a1 1 0 0 1 0-2h8.43a9.883 9.883 0 0 0 9.807-11.12 10.127 10.127 0 0 0 -10.227-8.65h-.78a1 1 0 0 1 -.981-1.2 15.936 15.936 0 0 0 .061-5.935 15.312 15.312 0 0 0 -.761-2.712 1 1 0 1 1 1.872-.7 17.286 17.286 0 0 1 .858 3.065 18 18 0 0 1 .131 5.492 12.11 12.11 0 0 1 11.813 10.4 11.883 11.883 0 0 1 -11.793 13.36z" fill="#16161d" data-original="#000000" style="" class=""/><path d="m40.579 9.98a1 1 0 0 1 -.128-1.992 17.732 17.732 0 0 1 3.257-.116 1 1 0 0 1 -.116 2 15.449 15.449 0 0 0 -2.883.1.955.955 0 0 1 -.13.008z" fill="#16161d" data-original="#000000" style="" class=""/><path d="m22.31 51.47h-8.43a11.893 11.893 0 0 1 -11.793-13.36 12.11 12.11 0 0 1 11.881-10.4 13.753 13.753 0 0 1 12.957-9.983 17.888 17.888 0 0 1 4.595-5.86 1 1 0 1 1 1.28 1.533 15.865 15.865 0 0 0 -4.335 5.756.988.988 0 0 1 -.98.594l-.183-.016c-.06 0-.118-.012-.182-.012a11.733 11.733 0 0 0 -11.393 9.193 1 1 0 0 1 -.977.787h-.45a10.125 10.125 0 0 0 -10.227 8.65 9.892 9.892 0 0 0 9.807 11.118h8.43a1 1 0 1 1 0 2z" fill="#16161d" data-original="#000000" style="" class=""/><path d="m52.979 13.44a1 1 0 0 1 -.63-.224 14.743 14.743 0 0 0 -2.415-1.581 1 1 0 1 1 .932-1.77 16.81 16.81 0 0 1 2.745 1.8 1 1 0 0 1 -.632 1.776z" fill="#16161d" data-original="#000000" style="" class=""/><path d="m37 66.159a15.69 15.69 0 1 1 15.69-15.69 15.708 15.708 0 0 1 -15.69 15.69zm0-29.38a13.69 13.69 0 1 0 13.69 13.69 13.705 13.705 0 0 0 -13.69-13.69z" fill="#16161d" data-original="#000000" style="" class=""/><path d="m37 58.194a1 1 0 0 1 -1-1v-13.449a1 1 0 0 1 2 0v13.449a1 1 0 0 1 -1 1z" fill="#16161d" data-original="#000000" style="" class=""/><path d="m41.235 48.98a1 1 0 0 1 -.707-.293l-3.528-3.528-3.528 3.528a1 1 0 1 1 -1.414-1.414l4.235-4.235a1 1 0 0 1 1.414 0l4.235 4.235a1 1 0 0 1 -.707 1.707z" fill="#16161d" data-original="#000000" style="" class=""/></g></g></svg>
